<svg width="24" height="24" viewBox="0 0 24 24" fill="none" xmlns="http://www.w3.org/2000/svg">
<path fill-rule="evenodd" clip-rule="evenodd" d="M12 10.5C13.933 10.5 15.5 8.933 15.5 7C15.5 5.067 13.933 3.5 12 3.5C10.067 3.5 8.5 5.067 8.5 7C8.5 8.933 10.067 10.5 12 10.5Z" stroke="black" stroke-linecap="round" stroke-linejoin="round"/>
<path fill-rule="evenodd" clip-rule="evenodd" d="M12 0.5C15.7861 0.500552 18.855 3.56993 18.855 7.356C18.855 10.571 13.913 18.541 12.421 20.873C12.3291 21.0165 12.1704 21.1033 12 21.1033C11.8296 21.1033 11.6709 21.0165 11.579 20.873C10.087 18.541 5.145 10.573 5.145 7.356C5.14474 5.53777 5.86684 3.79391 7.15243 2.50814C8.43802 1.22236 10.1818 0.5 12 0.5V0.5Z" stroke="black" stroke-linecap="round" stroke-linejoin="round"/>
<path d="M17 19.7C20.848 20.024 23.5 20.709 23.5 21.5C23.5 22.605 18.352 23.5 12 23.5C5.648 23.5 0.5 22.605 0.5 21.5C0.5 20.71 3.135 20.027 6.958 19.7" stroke="black" stroke-linecap="round" stroke-linejoin="round"/>
</svg>

