<svg width="24" height="24" viewBox="0 0 24 24" fill="none" xmlns="http://www.w3.org/2000/svg">
<path fill-rule="evenodd" clip-rule="evenodd" d="M21 2.909C22.4081 3.18058 23.4437 4.38607 23.5 5.819V7.819C23.5049 8.95662 22.6338 9.90656 21.5 10H18.5C17.3662 9.90656 16.4951 8.95662 16.5 7.819V6.319C13.5072 6.025 10.4928 6.025 7.50001 6.319V7.819C7.50489 8.95662 6.63379 9.90656 5.50001 10H2.50001C1.36622 9.90656 0.495117 8.95662 0.500005 7.819V5.819C0.556278 4.38607 1.59192 3.18058 3.00001 2.909C8.93877 1.69675 15.0612 1.69675 21 2.909V2.909Z" stroke="black" stroke-linecap="round" stroke-linejoin="round"/>
<path d="M19.5 12V20C19.4973 21.1034 18.6034 21.9973 17.5 22H6.5C5.39657 21.9973 4.50275 21.1034 4.5 20V12" stroke="black" stroke-linecap="round" stroke-linejoin="round"/>
<path d="M8.25 13C8.38807 13 8.5 13.1119 8.5 13.25C8.5 13.3881 8.38807 13.5 8.25 13.5C8.11193 13.5 8 13.3881 8 13.25C8 13.1119 8.11193 13 8.25 13" stroke="black" stroke-linecap="round" stroke-linejoin="round"/>
<path d="M12 13C12.1381 13 12.25 13.1119 12.25 13.25C12.25 13.3881 12.1381 13.5 12 13.5C11.8619 13.5 11.75 13.3881 11.75 13.25C11.75 13.1119 11.8619 13 12 13" stroke="black" stroke-linecap="round" stroke-linejoin="round"/>
<path d="M8.25 16C8.38807 16 8.5 16.1119 8.5 16.25C8.5 16.3881 8.38807 16.5 8.25 16.5C8.11193 16.5 8 16.3881 8 16.25C8 16.1119 8.11193 16 8.25 16" stroke="black" stroke-linecap="round" stroke-linejoin="round"/>
<path d="M12 16C12.1381 16 12.25 16.1119 12.25 16.25C12.25 16.3881 12.1381 16.5 12 16.5C11.8619 16.5 11.75 16.3881 11.75 16.25C11.75 16.1119 11.8619 16 12 16" stroke="black" stroke-linecap="round" stroke-linejoin="round"/>
<path d="M8.25 19C8.38807 19 8.5 19.1119 8.5 19.25C8.5 19.3881 8.38807 19.5 8.25 19.5C8.11193 19.5 8 19.3881 8 19.25C8 19.1119 8.11193 19 8.25 19" stroke="black" stroke-linecap="round" stroke-linejoin="round"/>
<path d="M15.75 13C15.6119 13 15.5 13.1119 15.5 13.25C15.5 13.3881 15.6119 13.5 15.75 13.5C15.8881 13.5 16 13.3881 16 13.25C16 13.1119 15.8881 13 15.75 13" stroke="black" stroke-linecap="round" stroke-linejoin="round"/>
<path d="M15.75 16C15.6119 16 15.5 16.1119 15.5 16.25C15.5 16.3881 15.6119 16.5 15.75 16.5C15.8881 16.5 16 16.3881 16 16.25C16 16.1119 15.8881 16 15.75 16" stroke="black" stroke-linecap="round" stroke-linejoin="round"/>
<path d="M15.75 19C15.6119 19 15.5 19.1119 15.5 19.25C15.5 19.3881 15.6119 19.5 15.75 19.5C15.8881 19.5 16 19.3881 16 19.25C16 19.1119 15.8881 19 15.75 19" stroke="black" stroke-linecap="round" stroke-linejoin="round"/>
<path d="M12 19C12.1381 19 12.25 19.1119 12.25 19.25C12.25 19.3881 12.1381 19.5 12 19.5C11.8619 19.5 11.75 19.3881 11.75 19.25C11.75 19.1119 11.8619 19 12 19" stroke="black" stroke-linecap="round" stroke-linejoin="round"/>
</svg>
